# This file uses centimeters as units for non-parametric coordinates.

g default
v -0.549148 0.477138 0.853274
v 0.549148 0.477138 0.853274
v -0.469172 0.417823 0.261792
v 0.469172 0.417823 0.261792
v -0.427778 0.398842 -0.090055
v 0.427778 0.398842 -0.090055
v -0.374689 0.346644 -0.332762
v 0.374689 0.346644 -0.332762
v -0.338708 0.194162 -0.423622
v 0.338708 0.194162 -0.423622
v -0.324444 0.000000 -0.433567
v 0.324444 0.000000 -0.433567
vt 0.000000 0.000000
vt 1.000000 0.000000
vt 0.000000 0.200000
vt 1.000000 0.200000
vt 0.000000 0.400000
vt 1.000000 0.400000
vt 0.000000 0.600000
vt 1.000000 0.600000
vt 0.000000 0.800000
vt 1.000000 0.800000
vt 0.000000 1.000000
vt 1.000000 1.000000
vn 0.000000 0.995009 -0.099783
vn 0.000000 0.995009 -0.099783
vn 0.000000 0.996325 -0.085655
vn 0.000000 0.996325 -0.085655
vn 0.000000 0.994276 -0.106847
vn 0.000000 0.994276 -0.106847
vn 0.000000 0.889620 -0.456702
vn 0.000000 0.889620 -0.456702
vn 0.000000 0.307713 -0.951479
vn 0.000000 0.307713 -0.951479
vn 0.000000 0.051152 -0.998691
vn 0.000000 0.051152 -0.998691
s 1
g sandWind
f 1/1/1 2/2/2 4/4/3 3/3/4
f 3/3/4 4/4/3 6/6/5 5/5/6
f 5/5/6 6/6/5 8/8/7 7/7/8
f 7/7/8 8/8/7 10/10/9 9/9/10
f 9/9/10 10/10/9 12/12/11 11/11/12
